# File created by Blade
# Date/Time:  Mon Nov 18 18:33:23 2013
# Frame Rate: 100.000 fps
#------------------------------------------------------
:FULLY-SPECIFIED
:DEGREES
263
root 52.895345 -4.030571 52.080931 -3.399854 0.026156 -125.590501
Spine 12.723357 -0.644386 -0.511074
Spine1 3.393024 1.574597 -1.352421
Spine2 0.896517 -1.061934 -1.532045
NeckDummy 0.000144 -0.144429 -0.025757 -1.397538 1.248262 -0.426538
Neck 15.247479 0.648136 27.455239
Head -0.305027 0.338720 0.192277 -34.020047 -4.190351 -0.675736
LeftShoulderDummy -0.058592 -0.133704 0.027472 -1.375996 1.127657 -0.211857
LeftShoulder 7.230929 -3.496239 13.998059
LeftArm 21.569148 51.012355 30.223262
LeftForeArm 89.881039
LeftForeArmRoll -36.547940
LeftHand -9.427719 5.344006 -4.660261
LeftHandThumb1 17.046153 12.916994
LeftHandIndex1 14.383932 43.698246
LeftHandPinky1 13.745251 48.229309
RightShoulderDummy -0.036052 -0.121355 0.054812 -1.417320 -1.246545 0.418572
RightShoulder 5.336572 4.934682 17.111834
RightArm -39.905501 69.838985 -2.838021
RightForeArm 112.314192
RightForeArmRoll 3.536135
RightHand -17.695544 -16.154701 11.609087
RightHandThumb1 -0.622101 13.550239
RightHandIndex1 14.109169 61.121901
RightHandPinky1 18.543266 69.512355
LeftUpLeg 3.622638 22.511233 -36.510952
LeftLeg 61.917933
LeftFoot 0.635456 -1.047567 -0.950009 -12.357278 10.042816 -15.378119
LeftToeBase -1.343680
RightUpLeg 10.815389 12.168878 -26.731757
RightLeg 68.124919
RightFoot -0.528159 0.453898 0.268737 -0.514564 7.314587 -34.573146
RightToeBase -1.084196
264
root 52.892183 -4.019597 52.082651 -3.379044 0.029862 -125.624150
Spine 12.721981 -0.651554 -0.493528
Spine1 3.380250 1.562948 -1.304193
Spine2 0.881365 -1.020068 -1.552118
NeckDummy 0.000372 -0.142425 -0.025447 -1.413370 1.259990 -0.424571
Neck 15.325152 0.659419 27.446038
Head -0.303283 0.338801 0.193124 -34.041366 -4.165356 -0.664245
LeftShoulderDummy -0.057226 -0.131239 0.028462 -1.391199 1.139983 -0.213508
LeftShoulder 7.321704 -3.538021 13.994322
LeftArm 21.683283 50.909011 30.326866
LeftForeArm 89.880981
LeftForeArmRoll -36.510915
LeftHand -9.499168 5.430538 -4.648675
LeftHandThumb1 16.958238 12.894277
LeftHandIndex1 14.380568 43.503944
LeftHandPinky1 13.738308 48.153881
RightShoulderDummy -0.036322 -0.119099 0.056071 -1.433100 -1.257969 0.414437
RightShoulder 5.395996 4.969417 17.154613
RightArm -39.543469 69.833906 -2.460394
RightForeArm 112.264073
RightForeArmRoll 3.627453
RightHand -17.747049 -16.261214 11.661293
RightHandThumb1 -0.537617 13.538408
RightHandIndex1 14.029361 61.251142
RightHandPinky1 18.504584 69.638852
LeftUpLeg 3.641143 22.505349 -36.488021
LeftLeg 61.871617
LeftFoot 0.634979 -1.049267 -0.947550 -12.419183 10.082977 -15.340965
LeftToeBase -1.347989
RightUpLeg 10.760749 12.137079 -26.754513
RightLeg 68.077598
RightFoot -0.536523 0.449758 0.269679 -0.615814 7.375426 -34.473143
RightToeBase -1.076107
265
root 52.884359 -4.009023 52.085203 -3.368938 0.051569 -125.608981
Spine 12.730328 -0.659778 -0.492764
Spine1 3.370973 1.548690 -1.300940
Spine2 0.862036 -1.009824 -1.545664
NeckDummy 0.000226 -0.140631 -0.024949 -1.428191 1.256048 -0.423790
Neck 15.358441 0.703693 27.437695
Head -0.302029 0.338192 0.192804 -34.038362 -4.141077 -0.647834
LeftShoulderDummy -0.058323 -0.129609 0.029392 -1.406674 1.135560 -0.208644
LeftShoulder 7.268440 -3.510247 13.979829
LeftArm 21.609004 50.935794 30.284484
LeftForeArm 89.888284
LeftForeArmRoll -36.505095
LeftHand -9.399107 5.334372 -4.714183
LeftHandThumb1 17.047688 12.931255
LeftHandIndex1 14.379461 43.639710
LeftHandPinky1 13.748323 48.231061
RightShoulderDummy -0.036452 -0.117258 0.057141 -1.447723 -1.254109 0.413568
RightShoulder 5.364241 4.964307 17.125519
RightArm -39.585309 69.779705 -2.578559
RightForeArm 112.266919
RightForeArmRoll 3.782835
RightHand -17.767597 -15.781241 11.707995
RightHandThumb1 -0.535346 13.164908
RightHandIndex1 13.732600 60.760931
RightHandPinky1 18.434128 69.124580
LeftUpLeg 3.639706 22.450755 -36.468463
LeftLeg 61.837306
LeftFoot 0.634478 -1.049727 -0.947123 -12.362948 10.096392 -15.298769
LeftToeBase -1.365827
RightUpLeg 10.750596 12.174291 -26.743002
RightLeg 68.049362
RightFoot -0.532999 0.456320 0.265527 -0.624813 7.372504 -34.467095
RightToeBase -0.985752
266
root 52.875727 -3.999110 52.089115 -3.339388 0.048322 -125.587490
Spine 12.707014 -0.642583 -0.492340
Spine1 3.353139 1.553365 -1.292976
Spine2 0.870363 -1.004467 -1.555450
NeckDummy 0.000457 -0.138071 -0.025406 -1.447892 1.262486 -0.427246
Neck 15.397355 0.743063 27.427138
Head -0.301253 0.336151 0.193371 -34.031324 -4.130749 -0.641316
LeftShoulderDummy -0.057989 -0.126840 0.029809 -1.426037 1.141883 -0.212573
LeftShoulder 7.250557 -3.500899 13.925294
LeftArm 21.568355 50.935417 30.224730
LeftForeArm 89.911488
LeftForeArmRoll -36.546864
LeftHand -9.430976 5.383224 -4.717542
LeftHandThumb1 16.906917 12.823313
LeftHandIndex1 14.372116 43.602451
LeftHandPinky1 13.765383 48.161630
RightShoulderDummy -0.036536 -0.114476 0.057633 -1.467369 -1.260499 0.416000
RightShoulder 5.433962 4.999386 17.125921
RightArm -39.315241 69.774927 -2.291013
RightForeArm 112.225829
RightForeArmRoll 3.405129
RightHand -17.726656 -16.258815 11.434194
RightHandThumb1 -0.949494 13.578595
RightHandIndex1 14.367244 61.057793
RightHandPinky1 19.123979 70.050370
LeftUpLeg 3.619395 22.409411 -36.478040
LeftLeg 61.803640
LeftFoot 0.634392 -1.049969 -0.945735 -12.363012 10.130857 -15.276390
LeftToeBase -1.370106
RightUpLeg 10.799124 12.217196 -26.734276
RightLeg 68.003614
RightFoot -0.531482 0.455766 0.265396 -0.646049 7.316423 -34.413247
RightToeBase -1.029869
